<svg id="marvelmovies" xmlns="http://www.w3.org/2000/svg" width="1209" height="6685" viewBox="0 0 1209 6685">
  <defs>
    <style>
      .cls-1 {
        fill: none;
      }

      .cls-1, .cls-11, .cls-3, .cls-5, .cls-6 {
        stroke: #ed1d24;
      }

      .cls-1, .cls-11, .cls-12, .cls-3, .cls-4, .cls-5, .cls-6 {
        stroke-miterlimit: 10;
      }

      .cls-1, .cls-3 {
        stroke-width: 5px;
      }

      .cls-11, .cls-2, .cls-3, .cls-4, .cls-5, .cls-6 {
        fill: #ed1d24;
      }

      .cls-4 {
        stroke: #e93400;
      }

      .cls-12, .cls-4 {
        stroke-width: 10px;
      }

      .cls-6 {
        stroke-width: 14px;
      }

      .cls-7 {
        font-size: 235px;
        font-family: GillSansNova-CondBold, Gill Sans Nova;
        font-weight: 700;
      }

      .cls-10, .cls-7 {
        fill: #fff;
      }

      .cls-8 {
        letter-spacing: 0em;
      }

      .cls-9 {
        letter-spacing: -0.01em;
      }

      .cls-10 {
        font-size: 117px;
        font-family: GillSansNova-Light, Gill Sans Nova;
        font-weight: 300;
      }

      .cls-11 {
        stroke-width: 8px;
      }

      .cls-12 {
        stroke: #000;
      }
    </style>
  </defs>
  <title>marveltemplate</title>
  <g>
    <line class="cls-1" x1="604" y1="493" x2="604" y2="6455"/>
    <line class="cls-2" x1="604" y1="493" x2="604" y2="6455"/>
  </g>
  <line class="cls-3" x1="602.5" y1="774.5" x2="427" y2="774"/>
  <line class="cls-3" x1="604" y1="970" x2="715" y2="970"/>
  <line class="cls-3" x1="606" y1="1143" x2="446" y2="1141"/>
  <g id="captainamerica">
    <circle class="HTML_placeholder cls-4" data-name="HTML placeholder"  class="cls-3" cx="340.5" cy="767.5" r="92.5"/>
  </g>
  <g id="ironman">
  <circle class="HTML_placeholder cls-6" data-name="HTML placeholder"  class="cls-3" cx="807.5" cy="970.5" r="92.5"/>
  </g>>

    <g id="theincrediblehulk">
  <circle class="HTML_placeholder cls-6" data-name="HTML placeholder" class="cls-3" cx="356.5" cy="1142.5" r="92.5"/>
  </g>

      <g id="ironmantwo">
  <circle class="HTML_placeholder cls-6" data-name="HTML placeholder" class="cls-3" cx="966.5" cy="1323.5" r="92.5"/> </g>


  <g id="thor">
  <circle class="HTML_placeholder cls-6" data-name="HTML placeholder" class="cls-3" cx="201.5" cy="1505.5" r="92.5"/> </g>

  <rect id="marvel" class="cls-4" x="5" y="5" width="1199" height="493"/>

  <g id="marvelone">
  <circle class="HTML_placeholder cls-6" data-name="HTML placeholder" class="cls-3" cx="597.5" cy="1892.5" r="202.5"/> </g>

  <line class="cls-3" x1="915" y1="2182" x2="605" y2="2182"/>


  <g id="ironmanthree">
  <circle class="HTML_placeholder cls-6" data-name="HTML placeholder" class="cls-3" cx="1002.5" cy="2182.5" r="92.5"/> </g>

  <line class="cls-3" x1="598" y1="2275" x2="288" y2="2275"/>

  <g id="thorthedarkworld">
  <circle class="HTML_placeholder cls-6" data-name="HTML placeholder"class="cls-3" cx="201.5" cy="2276.5" r="92.5"/>

  </g>
  <line class="cls-3" x1="597.5" y1="2502.5" x2="723" y2="2502"/>

<g id="captainamericatwo">
  <circle class="HTML_placeholder cls-6" data-name="HTML placeholder" class="cls-3" cx="815.5" cy="2502.5" r="92.5"/>
  </g>

  <line class="cls-3" x1="605.5" y1="2727.5" x2="436" y2="2725.01"/>

  <g id="guardiansofthegalaxy">

  <circle class="HTML_placeholder cls-6" data-name="HTML placeholder" class="cls-3" cx="349.5" cy="2726.5" r="92.5"/>

  </g>
  
  <line class="cls-3" x1="605" y1="3037" x2="702" y2="3037"/>

    <g id="guardiansofthegalaxytwo">

  <circle class="HTML_placeholder cls-6" data-name="HTML placeholder" class="cls-3" cx="794.5" cy="3037.5" r="92.5"/>
  <line class="cls-3" x1="294" y1="1505" x2="601.5" y2="1505.5"/>

  </g>

  <g id="avengersageofultron">

  <circle class="HTML_placeholder cls-6" data-name="HTML placeholder" class="cls-3" cx="605.5" cy="3465.5" r="202.5"/>
  </g>

  <g id="antman">
  <circle class="HTML_placeholder cls-6" data-name="HTML placeholder" class="cls-5" cx="301.5" cy="3825.5" r="92.5"/>

  </g>
  <line class="cls-3" x1="915" y1="4040" x2="605" y2="4040"/>


  <g id="captainamericathree">
  <circle class="HTML_placeholder cls-6" data-name="HTML placeholder" class="cls-3" cx="1002.5" cy="4040.5" r="92.5"/>
  </g>
  <line class="cls-3" x1="601" y1="4172" x2="291" y2="4172"/>

  <g id="blackpanther">
  <circle class="HTML_placeholder cls-6" data-name="HTML placeholder" class="cls-3" cx="201.5" cy="4173.5" r="92.5"/>
  </g>

  <line class="cls-3" x1="719" y1="4485" x2="605" y2="4485"/>

  <g id="doctorstrange">
  <circle class="HTML_placeholder cls-6" data-name="HTML placeholder"  class="cls-3" cx="806.5" cy="4485.5" r="92.5"/>

  </g>
  <line class="cls-3" x1="606" y1="4602" x2="421" y2="4602"/>

  <g id="spidermanhomecoming">
  <circle class="HTML_placeholder cls-6" data-name="HTML placeholder"  class="cls-3" cx="328.5" cy="4603.5" r="92.5"/>
  </g>
  <line class="cls-3" x1="1024" y1="4801" x2="606" y2="4801"/>

  <g id="thorragnarok">
  <circle class="HTML_placeholder cls-6" data-name="HTML placeholder"  class="cls-3" cx="1111.5" cy="4801.5" r="92.5"/>

  </g>

  <line class="cls-3" x1="602" y1="5008" x2="513" y2="5006"/>

  <g id="antmantwo">
  <circle class="HTML_placeholder cls-6" data-name="HTML placeholder"  data-name="antman" class="cls-3" cx="425.5" cy="5004.5" r="92.5"/>

  </g>

  <g id="avengersinfinitywar">
  <circle class="HTML_placeholder cls-6" data-name="HTML placeholder" class="cls-2" cx="605.5" cy="5540.5" r="202.5"/>

  </g>
  <g id="captainmarvel">
    <circle class="HTML_placeholder cls-6" data-name="HTML placeholder" class="cls-2" cx="604.5" cy="6482.5" r="202.5"/>

    </g>

    <g id="avengersendgame">

  <circle class="HTML_placeholder cls-6" data-name="HTML placeholder" class="cls-6" cx="806.5" cy="5966.5" r="92.5"/>

  </g>

  <g id="Layer_2" data-name="Layer 2">
    <text class="cls-7" transform="translate(83.31 301.48)">MARVEL</text>>

  </g>
  <line class="cls-11" x1="743" y1="5969" x2="602" y2="5966"/>
  <rect class="cls-12" x="5" y="474" width="1199" height="24"/>
  <rect class="cls-12" x="604" y="474" width="7" height="19"/>
  <line class="cls-3" x1="602" y1="1323" x2="874" y2="1323"/>
  <line class="cls-3" x1="600.5" y1="3833.5" x2="290" y2="3833"/>
</svg>
